<svg xmlns="http://www.w3.org/2000/svg" width="241" height="266" fill="none"><mask id="a" width="241" height="266" x="0" y="0" maskUnits="userSpaceOnUse" style="mask-type:alpha"><path fill="#fff" d="M0 0h241v266H0z"/></mask><g mask="url(#a)"><path fill="url(#b)" d="m108.259 150.122-34.424 21.059a.82.82 0 0 0-.393.703l-41.662-3.319-38.08 7.757-39.027-38.822L-46 306.176c0 .455.368.824.824.824l307.137-.026a.824.824 0 0 0 .824-.824l.04-249.325c0-.847-1.126-1.143-1.541-.404l-20.96 37.348a.82.82 0 0 1-.412.361l-55.967 22.468a.84.84 0 0 0-.291.199l-28.881 30.508a.82.82 0 0 1-.554.256l-45.574 2.442a.8.8 0 0 0-.386.119" opacity=".1"/><path stroke="#224077" stroke-width="2" d="m108.259 150.122-34.424 21.06a.82.82 0 0 0-.393.702l-41.49-3.45-38.275 7.444-39.58-38.935L-46 306.176c0 .455.368.824.824.824l307.137-.026a.824.824 0 0 0 .824-.824l.04-249.325c0-.847-1.126-1.142-1.541-.403l-20.96 37.347a.82.82 0 0 1-.412.361L183.945 116.6a.8.8 0 0 0-.291.198l-28.881 30.509a.82.82 0 0 1-.554.255l-45.574 2.442a.8.8 0 0 0-.386.119Z"/></g><defs><linearGradient id="b" x1="108.413" x2="108.413" y1="56" y2="307" gradientUnits="userSpaceOnUse"><stop stop-color="#224077"/><stop offset="1" stop-color="#224077" stop-opacity=".2"/></linearGradient></defs></svg>