<svg xmlns="http://www.w3.org/2000/svg" width="241" height="266" fill="none"><mask id="a" width="241" height="266" x="0" y="0" maskUnits="userSpaceOnUse" style="mask-type:alpha"><rect width="241" height="266" fill="#fff" rx="2"/></mask><g mask="url(#a)"><mask id="b" width="279" height="158" x="-10" y="115" maskUnits="userSpaceOnUse" style="mask-type:alpha"><path fill="#fff" d="M268.715 115v157.845H-10V115z"/></mask><g mask="url(#b)"><path fill="url(#c)" d="M48.697 175.238-3.6 166.71l-69.257 29.403-53.005-5.612-45.405 28.467a1.116 1.116 0 0 0-1.408 1.078l-.104 51.766c0 .616.501 1.116 1.117 1.116l429.018.018c.616 0 1.117-.5 1.117-1.116V118.571c0-.68-.604-1.202-1.278-1.105l-29.346 4.269a1 1 0 0 0-.167.037l-76.249 23.376a1.1 1.1 0 0 1-.328.049h-39.219c-.167 0-.333.038-.484.111l-61.928 29.858a1.1 1.1 0 0 1-.777.072" opacity=".1"/><path stroke="#224077" stroke-linejoin="round" stroke-width="2" d="m-172.675 218.587 46.756-27.786 53.7 5.557 68.883-29.822 48.418 7.724c2.59.701 5.348.444 7.766-.722l56.486-27.233a11.16 11.16 0 0 1 4.85-1.109H149.6c1.109 0 2.213-.165 3.273-.491l74.073-22.707a11 11 0 0 1 1.666-.374l29.861-4.343"/></g></g><defs><linearGradient id="c" x1="42.847" x2="42.847" y1="117.455" y2="272.946" gradientUnits="userSpaceOnUse"><stop stop-color="#224077"/><stop offset="1" stop-color="#224077" stop-opacity=".2"/></linearGradient></defs></svg>