<svg xmlns="http://www.w3.org/2000/svg" width="20" height="20" fill="none"><mask id="a" width="20" height="20" x="0" y="0" maskUnits="userSpaceOnUse" style="mask-type:alpha"><path fill="#D9D9D9" d="M0 0h20v20H0z"/></mask><g mask="url(#a)"><path fill="#212529" d="M11.235 17.916q-2.08 0-3.545-1.459t-1.464-3.54v-.456a4.41 4.41 0 0 1-2.823-1.505q-1.135-1.284-1.135-3.04V3.878q0-.32.216-.537a.73.73 0 0 1 .537-.216h1.747v-.209q0-.265.18-.445t.445-.18.445.18.18.445v1.667q0 .265-.18.445a.6.6 0 0 1-.446.18.6.6 0 0 1-.445-.18.6.6 0 0 1-.18-.445v-.208h-1.25v3.541q0 1.376.98 2.354a3.2 3.2 0 0 0 2.354.98 3.2 3.2 0 0 0 2.354-.98 3.2 3.2 0 0 0 .98-2.354V4.375h-1.25v.208q0 .265-.18.445a.6.6 0 0 1-.446.18.6.6 0 0 1-.445-.18.6.6 0 0 1-.18-.445V2.916q0-.265.18-.445t.446-.18.445.18.18.445v.209h1.746q.321 0 .537.216a.73.73 0 0 1 .216.537v4.038q0 1.755-1.135 3.04a4.41 4.41 0 0 1-2.823 1.505v.455q0 1.563 1.096 2.656 1.095 1.095 2.662 1.094 1.563 0 2.656-1.094 1.095-1.093 1.094-2.656v-1.348a2.14 2.14 0 0 1-1.082-.763 2.04 2.04 0 0 1-.424-1.27q0-.888.622-1.51a2.06 2.06 0 0 1 1.51-.622q.888 0 1.51.622.62.622.62 1.51 0 .712-.424 1.27a2.14 2.14 0 0 1-1.082.764v1.347q0 2.082-1.46 3.541-1.458 1.46-3.539 1.46m4.374-7.5a.85.85 0 0 0 .626-.255.85.85 0 0 0 .256-.626.85.85 0 0 0-.256-.626.85.85 0 0 0-.626-.256.85.85 0 0 0-.626.256.85.85 0 0 0-.255.626q0 .37.255.626.256.255.626.255"/></g></svg>