<svg xmlns="http://www.w3.org/2000/svg" width="20" height="20" fill="none"><mask id="a" width="20" height="20" x="0" y="0" maskUnits="userSpaceOnUse" style="mask-type:alpha"><path fill="#D9D9D9" d="M0 0h20v20H0z"/></mask><g mask="url(#a)"><path fill="#212529" d="M4.792 13.542v-5q0-.266.18-.446t.445-.18.445.18.18.446v5q0 .265-.18.445a.6.6 0 0 1-.446.18.6.6 0 0 1-.445-.18.6.6 0 0 1-.18-.445m4.583 0v-5q0-.266.18-.446t.445-.18.445.18.18.446v5q0 .265-.18.445a.6.6 0 0 1-.445.18.6.6 0 0 1-.445-.18.6.6 0 0 1-.18-.445m-6.442 3.541a.6.6 0 0 1-.446-.18.6.6 0 0 1-.18-.445q0-.266.18-.445.18-.18.446-.18h14.134q.266 0 .446.18t.18.446-.18.445a.6.6 0 0 1-.446.18zm11.025-3.541v-5q0-.266.18-.446t.446-.18.445.18.18.446v5q0 .265-.18.445a.6.6 0 0 1-.446.18.6.6 0 0 1-.445-.18.6.6 0 0 1-.18-.445M17.1 6.25H2.841a.52.52 0 0 1-.378-.155.51.51 0 0 1-.155-.378v-.325a.5.5 0 0 1 .081-.28.6.6 0 0 1 .215-.192l6.734-3.295q.312-.15.661-.15t.663.15l6.7 3.274a.59.59 0 0 1 .33.534v.226a.574.574 0 0 1-.593.591M5.263 5h9.474l-4.625-2.244A.3.3 0 0 0 10 2.732a.3.3 0 0 0-.112.024z"/></g></svg>