<svg xmlns="http://www.w3.org/2000/svg" width="20" height="20" fill="none"><mask id="a" width="20" height="20" x="0" y="0" maskUnits="userSpaceOnUse" style="mask-type:alpha"><path fill="#D9D9D9" d="M0 0h20v20H0z"/></mask><g mask="url(#a)"><path fill="#212529" d="M9.375 16.714v-3.638H7.5q-1.56 0-2.655-1.094T3.75 9.326q0-1.178.704-2.13A4.25 4.25 0 0 1 6.26 5.783q.18-1.603 1.224-2.571T10 2.243t2.516.968 1.224 2.57a4.1 4.1 0 0 1 1.81 1.408q.7.96.7 2.137 0 1.56-1.095 2.656-1.094 1.095-2.655 1.094h-1.875v3.638h4.167q.265 0 .445.18t.18.445-.18.446a.6.6 0 0 1-.445.18H5.208a.6.6 0 0 1-.445-.18.6.6 0 0 1-.18-.446q0-.266.18-.445.18-.18.445-.18zM7.5 11.826h5q1.042 0 1.77-.729.73-.729.73-1.77a2.3 2.3 0 0 0-.495-1.444 3 3 0 0 0-1.255-.944l-.667-.28-.093-.75q-.132-1.12-.819-1.769-.686-.647-1.671-.647-.986 0-1.671.647-.686.648-.82 1.77l-.092.75-.731.31a2.9 2.9 0 0 0-1.207.937Q5 8.537 5 9.327q0 1.041.73 1.77.728.73 1.77.73"/></g></svg>