<svg xmlns="http://www.w3.org/2000/svg" width="20" height="20" fill="none"><mask id="a" width="20" height="20" x="0" y="0" maskUnits="userSpaceOnUse" style="mask-type:alpha"><path fill="#D9D9D9" d="M0 0h20v20H0z"/></mask><g mask="url(#a)"><path fill="#212529" d="M4.375 17.083a.6.6 0 0 1-.445-.18.6.6 0 0 1-.18-.445q0-.266.18-.445.18-.18.445-.18h11.25q.265 0 .445.18t.18.445q0 .267-.18.446a.6.6 0 0 1-.445.179zm2.348-3.237q-1.23 0-2.102-.86a2.8 2.8 0 0 1-.871-2.073v-6.73q0-.528.37-.897a1.22 1.22 0 0 1 .896-.37h11.362a1.5 1.5 0 0 1 1.087.442q.452.441.452 1.073v2.18q0 .63-.452 1.072a1.5 1.5 0 0 1-1.087.442h-1.667v2.788q0 1.215-.87 2.074a2.88 2.88 0 0 1-2.102.859zm0-1.25h5.016q.71 0 1.217-.495.505-.495.505-1.191V4.166H5v6.747q0 .696.506 1.19a1.68 1.68 0 0 0 1.217.493m7.988-5.721h1.667q.12 0 .204-.076a.24.24 0 0 0 .085-.189V4.43a.24.24 0 0 0-.085-.188.3.3 0 0 0-.204-.076h-1.667zm-7.988 5.72H5h8.462z"/></g></svg>