<svg xmlns="http://www.w3.org/2000/svg" width="20" height="20" fill="none"><mask id="a" width="20" height="20" x="0" y="0" maskUnits="userSpaceOnUse" style="mask-type:alpha"><path fill="#D9D9D9" d="M0 0h20v20H0z"/></mask><g mask="url(#a)"><path fill="#212529" d="M5.37 14.027a1.488 1.488 0 0 1-.787-1.335V9.077l-1.663-.92a.8.8 0 0 1-.302-.285.74.74 0 0 1-.096-.372q0-.205.096-.373a.8.8 0 0 1 .302-.284l6.362-3.467q.17-.095.35-.138a1.54 1.54 0 0 1 .736 0q.18.044.35.138l7.186 3.91a.74.74 0 0 1 .397.666v4.916q0 .267-.18.446a.6.6 0 0 1-.445.18.6.6 0 0 1-.445-.18.6.6 0 0 1-.18-.446V8.192l-1.634.885v3.615a1.49 1.49 0 0 1-.787 1.335l-3.91 2.114q-.172.095-.352.14a1.54 1.54 0 0 1-.737 0 1.4 1.4 0 0 1-.35-.14zm4.534-3.492q.055.032.1.032t.1-.032L15.7 7.5l-5.596-3.027a.2.2 0 0 0-.1-.032q-.045 0-.1.032L4.3 7.5zm-.008 4.524a.2.2 0 0 0 .104.032q.048 0 .104-.032l3.942-2.13a.25.25 0 0 0 .093-.092.3.3 0 0 0 .027-.132V9.743l-3.434 1.887q-.171.095-.356.14a1.6 1.6 0 0 1-.753 0 1.4 1.4 0 0 1-.356-.14L5.833 9.743v2.962q0 .064.028.124.029.06.092.1z"/></g></svg>