<svg xmlns="http://www.w3.org/2000/svg" width="20" height="20" fill="none"><mask id="a" width="20" height="20" x="0" y="0" maskUnits="userSpaceOnUse" style="mask-type:alpha"><path fill="#D9D9D9" d="M0 0h20v20H0z"/></mask><g mask="url(#a)"><path fill="#212529" d="M5.256 17.917q-.63 0-1.069-.438a1.45 1.45 0 0 1-.437-1.069V6.923q0-.63.438-1.069a1.45 1.45 0 0 1 1.068-.437h1.619v-.208q0-1.295.915-2.21A3 3 0 0 1 10 2.084q1.295 0 2.21.915t.915 2.21v.208h1.618q.633 0 1.07.437t.437 1.07v9.487q0 .63-.437 1.068a1.45 1.45 0 0 1-1.07.438zm0-1.25h9.487a.25.25 0 0 0 .177-.08.25.25 0 0 0 .08-.177V6.923a.25.25 0 0 0-.08-.176.25.25 0 0 0-.177-.08h-1.618v1.875q0 .266-.18.445a.6.6 0 0 1-.445.18.6.6 0 0 1-.445-.18.6.6 0 0 1-.18-.445V6.667h-3.75v1.875q0 .266-.18.445a.6.6 0 0 1-.445.18.6.6 0 0 1-.446-.18.6.6 0 0 1-.179-.445V6.667H5.256a.25.25 0 0 0-.176.08.25.25 0 0 0-.08.176v9.487q0 .097.08.177t.176.08m2.869-11.25h3.75v-.208q0-.784-.546-1.33A1.8 1.8 0 0 0 10 3.334q-.784 0-1.33.545a1.8 1.8 0 0 0-.545 1.33z"/></g></svg>